<?xml version="1.0" encoding="UTF-8" standalone="no"?>
<!-- Created with Inkscape (http://www.inkscape.org/) -->

<svg
   width="34"
   height="8"
   viewBox="0 0 8.9958332 2.1166666"
   version="1.1"
   id="svg1"
   inkscape:version="1.3 (0e150ed6c4, 2023-07-21)"
   sodipodi:docname="arrow.svg"
   inkscape:export-filename="arrow-rot.png"
   inkscape:export-xdpi="300"
   inkscape:export-ydpi="300"
   xmlns:inkscape="http://www.inkscape.org/namespaces/inkscape"
   xmlns:sodipodi="http://sodipodi.sourceforge.net/DTD/sodipodi-0.dtd"
   xmlns="http://www.w3.org/2000/svg"
   xmlns:svg="http://www.w3.org/2000/svg">
  <sodipodi:namedview
     id="namedview1"
     pagecolor="#ffffff"
     bordercolor="#000000"
     borderopacity="0.25"
     inkscape:showpageshadow="2"
     inkscape:pageopacity="0.0"
     inkscape:pagecheckerboard="0"
     inkscape:deskcolor="#d1d1d1"
     inkscape:document-units="mm"
     inkscape:zoom="16"
     inkscape:cx="-50.65625"
     inkscape:cy="16.0625"
     inkscape:window-width="1852"
     inkscape:window-height="990"
     inkscape:window-x="32"
     inkscape:window-y="54"
     inkscape:window-maximized="1"
     inkscape:current-layer="layer1" />
  <defs
     id="defs1" />
  <g
     inkscape:label="Layer 1"
     inkscape:groupmode="layer"
     id="layer1"
     transform="translate(1.6261549,-0.4906817)">
    <g
       id="g18"
       transform="translate(0.07234373,0.00723473)">
      <path
         id="path4"
         style="fill:#000000;stroke-width:0.529166;stroke-opacity:0.720393"
         d="m 1.1488699,0.4906817 -2.7305828,1.0366292 c -0.01476,0.00402 -0.044442,0.0124 -0.044442,0.0124 l 0.0062,0.00206 -0.00413,0.00206 c 0,0 0.023268,0.00642 0.029972,0.00826 l 2.7398836,1.040788 c 0,0 -0.60758202,-0.5010934 -0.61494962,-1.0386964 -0.00736,-0.537603 0.61805022,-1.0635008 0.61805022,-1.0635008 z"
         sodipodi:nodetypes="ccccccczc" />
      <path
         style="fill:#000000;stroke:#000000;stroke-width:0.264584;stroke-dasharray:none;stroke-opacity:1"
         d="M -1.0526437,1.5455613 H 5.9857779"
         id="path5"
         sodipodi:nodetypes="cc" />
      <g
         id="g13"
         transform="matrix(2,0,0,2,-2.7994181,-1.5417803)">
        <path
           style="fill:#000000;fill-opacity:0.424763;stroke:#000000;stroke-width:0.0661458;stroke-dasharray:none;stroke-opacity:1"
           d="M 3.1276122,1.5460031 3.6668276,1.8626999 4.8945815,1.9038519 4.3411829,1.5440062 Z"
           id="path7"
           sodipodi:nodetypes="ccccc" />
        <path
           style="fill:#000000;fill-opacity:0.424763;stroke:#000000;stroke-width:0.0661458;stroke-dasharray:none;stroke-opacity:1"
           d="m 3.4885018,1.5843705 c 0.013528,0.011868 0.5069841,0.2873598 0.5069841,0.2873598"
           id="path11"
           sodipodi:nodetypes="cc" />
        <path
           style="fill:#000000;fill-opacity:0.424763;stroke:#000000;stroke-width:0.0661458;stroke-dasharray:none;stroke-opacity:1"
           d="M 3.7805734,1.5622789 C 3.7941014,1.5741469 4.2969476,1.886082 4.2969476,1.886082"
           id="path12"
           sodipodi:nodetypes="cc" />
        <path
           style="fill:#000000;fill-opacity:0.424763;stroke:#000000;stroke-width:0.0661458;stroke-dasharray:none;stroke-opacity:1"
           d="m 4.0687271,1.5750478 c 0.013528,0.011868 0.5388011,0.3272843 0.5388011,0.3272843"
           id="path13"
           sodipodi:nodetypes="cc" />
      </g>
      <g
         id="g17"
         transform="matrix(2,0,0,-2,-2.8061465,4.6383591)">
        <path
           style="fill:#000000;fill-opacity:0.424763;stroke:#000000;stroke-width:0.0661458;stroke-dasharray:none;stroke-opacity:1"
           d="M 3.1276122,1.5460031 3.6668276,1.8626999 4.8945815,1.9038519 4.3411829,1.5440062 Z"
           id="path14"
           sodipodi:nodetypes="ccccc" />
        <path
           style="fill:#000000;fill-opacity:0.424763;stroke:#000000;stroke-width:0.0661458;stroke-dasharray:none;stroke-opacity:1"
           d="m 3.4885018,1.5843705 c 0.013528,0.011868 0.5069841,0.2873598 0.5069841,0.2873598"
           id="path15"
           sodipodi:nodetypes="cc" />
        <path
           style="fill:#000000;fill-opacity:0.424763;stroke:#000000;stroke-width:0.0661458;stroke-dasharray:none;stroke-opacity:1"
           d="M 3.7805734,1.5622789 C 3.7941014,1.5741469 4.2969476,1.886082 4.2969476,1.886082"
           id="path16"
           sodipodi:nodetypes="cc" />
        <path
           style="fill:#000000;fill-opacity:0.424763;stroke:#000000;stroke-width:0.0661458;stroke-dasharray:none;stroke-opacity:1"
           d="m 4.0687271,1.5750478 c 0.013528,0.011868 0.5388011,0.3272843 0.5388011,0.3272843"
           id="path17"
           sodipodi:nodetypes="cc" />
      </g>
    </g>
    <g
       id="g21"
       transform="rotate(135.35776,-5.2889364,0.44340301)"
       inkscape:export-filename="arrow-rot.png"
       inkscape:export-xdpi="150"
       inkscape:export-ydpi="150">
      <path
         id="path1"
         style="fill:#000000;stroke-width:0.529166;stroke-opacity:0.720393"
         d="m 1.1488699,0.4906817 -2.7305828,1.0366292 c -0.01476,0.00402 -0.044442,0.0124 -0.044442,0.0124 l 0.0062,0.00206 -0.00413,0.00206 c 0,0 0.023268,0.00642 0.029972,0.00826 l 2.7398836,1.040788 c 0,0 -0.60758202,-0.5010934 -0.61494962,-1.0386964 -0.00736,-0.537603 0.61805022,-1.0635008 0.61805022,-1.0635008 z"
         sodipodi:nodetypes="ccccccczc" />
      <path
         style="fill:#000000;stroke:#000000;stroke-width:0.264584;stroke-dasharray:none;stroke-opacity:1"
         d="M -1.0526437,1.5455613 H 5.9857779"
         id="path2"
         sodipodi:nodetypes="cc" />
      <g
         id="g9"
         transform="matrix(2,0,0,2,-2.7994181,-1.5417803)">
        <path
           style="fill:#000000;fill-opacity:0.424763;stroke:#000000;stroke-width:0.0661458;stroke-dasharray:none;stroke-opacity:1"
           d="M 3.1276122,1.5460031 3.6668276,1.8626999 4.8945815,1.9038519 4.3411829,1.5440062 Z"
           id="path3"
           sodipodi:nodetypes="ccccc" />
        <path
           style="fill:#000000;fill-opacity:0.424763;stroke:#000000;stroke-width:0.0661458;stroke-dasharray:none;stroke-opacity:1"
           d="m 3.4885018,1.5843705 c 0.013528,0.011868 0.5069841,0.2873598 0.5069841,0.2873598"
           id="path6"
           sodipodi:nodetypes="cc" />
        <path
           style="fill:#000000;fill-opacity:0.424763;stroke:#000000;stroke-width:0.0661458;stroke-dasharray:none;stroke-opacity:1"
           d="M 3.7805734,1.5622789 C 3.7941014,1.5741469 4.2969476,1.886082 4.2969476,1.886082"
           id="path8"
           sodipodi:nodetypes="cc" />
        <path
           style="fill:#000000;fill-opacity:0.424763;stroke:#000000;stroke-width:0.0661458;stroke-dasharray:none;stroke-opacity:1"
           d="m 4.0687271,1.5750478 c 0.013528,0.011868 0.5388011,0.3272843 0.5388011,0.3272843"
           id="path9"
           sodipodi:nodetypes="cc" />
      </g>
      <g
         id="g20"
         transform="matrix(2,0,0,-2,-2.8061465,4.6383591)">
        <path
           style="fill:#000000;fill-opacity:0.424763;stroke:#000000;stroke-width:0.0661458;stroke-dasharray:none;stroke-opacity:1"
           d="M 3.1276122,1.5460031 3.6668276,1.8626999 4.8945815,1.9038519 4.3411829,1.5440062 Z"
           id="path10"
           sodipodi:nodetypes="ccccc" />
        <path
           style="fill:#000000;fill-opacity:0.424763;stroke:#000000;stroke-width:0.0661458;stroke-dasharray:none;stroke-opacity:1"
           d="m 3.4885018,1.5843705 c 0.013528,0.011868 0.5069841,0.2873598 0.5069841,0.2873598"
           id="path18"
           sodipodi:nodetypes="cc" />
        <path
           style="fill:#000000;fill-opacity:0.424763;stroke:#000000;stroke-width:0.0661458;stroke-dasharray:none;stroke-opacity:1"
           d="M 3.7805734,1.5622789 C 3.7941014,1.5741469 4.2969476,1.886082 4.2969476,1.886082"
           id="path19"
           sodipodi:nodetypes="cc" />
        <path
           style="fill:#000000;fill-opacity:0.424763;stroke:#000000;stroke-width:0.0661458;stroke-dasharray:none;stroke-opacity:1"
           d="m 4.0687271,1.5750478 c 0.013528,0.011868 0.5388011,0.3272843 0.5388011,0.3272843"
           id="path20"
           sodipodi:nodetypes="cc" />
      </g>
    </g>
  </g>
</svg>
