<?xml version="1.0" encoding="UTF-8" standalone="no"?>
<svg
   width="238.47777"
   height="43.584286"
   viewBox="0 0 68.792 12.572452"
   version="1.1"
   id="svg8"
   inkscape:version="1.3 (0e150ed6c4, 2023-07-21)"
   sodipodi:docname="dusk.svg"
   xmlns:inkscape="http://www.inkscape.org/namespaces/inkscape"
   xmlns:sodipodi="http://sodipodi.sourceforge.net/DTD/sodipodi-0.dtd"
   xmlns="http://www.w3.org/2000/svg"
   xmlns:svg="http://www.w3.org/2000/svg"
   xmlns:rdf="http://www.w3.org/1999/02/22-rdf-syntax-ns#"
   xmlns:cc="http://creativecommons.org/ns#"
   xmlns:dc="http://purl.org/dc/elements/1.1/">
  <defs
     id="defs2" />
  <sodipodi:namedview
     fit-margin-bottom="2"
     fit-margin-right="2"
     fit-margin-left="2"
     lock-margins="true"
     fit-margin-top="2"
     id="base"
     pagecolor="#ffffff"
     bordercolor="#666666"
     borderopacity="1.0"
     inkscape:pageopacity="0.0"
     inkscape:pageshadow="2"
     inkscape:zoom="4.0779054"
     inkscape:cx="116.35876"
     inkscape:cy="-5.1497026"
     inkscape:document-units="px"
     inkscape:current-layer="layer1"
     inkscape:document-rotation="0"
     showgrid="false"
     inkscape:window-width="1852"
     inkscape:window-height="990"
     inkscape:window-x="32"
     inkscape:window-y="54"
     inkscape:window-maximized="1"
     units="px"
     inkscape:showpageshadow="2"
     inkscape:pagecheckerboard="0"
     inkscape:deskcolor="#d1d1d1" />
  <metadata
     id="metadata5">
    <rdf:RDF>
      <cc:Work
         rdf:about="">
        <dc:format>image/svg+xml</dc:format>
        <dc:type
           rdf:resource="http://purl.org/dc/dcmitype/StillImage" />
      </cc:Work>
    </rdf:RDF>
  </metadata>
  <g
     transform="translate(-2.0421145,-33.083572)"
     inkscape:label="Layer 1"
     inkscape:groupmode="layer"
     id="layer1">
    <g
       transform="translate(-0.02338455,-0.08060043)"
       id="g879">
      <circle
         r="0.95249999"
         cy="39.901821"
         cx="36.425102"
         id="path863"
         style="fill:#000000;fill-opacity:1;stroke:#ffffff;stroke-width:0.397963;stroke-linecap:round;stroke-linejoin:round" />
      <path
         style="fill:#000000;fill-opacity:1;stroke:#000000;stroke-width:0.293971px;stroke-linecap:butt;stroke-linejoin:miter;stroke-opacity:1"
         d="m 36.494197,42.732036 c 0,0 -0.345626,1.245172 -0.693224,1.974453 -0.225801,0.543746 0.384369,0.887124 0.731501,0.883046 0.347131,-0.0041 0.861578,-0.365974 0.569889,-0.982266 -0.306038,-0.601489 -0.393357,-1.098535 -0.608166,-1.875233 z"
         id="path835"
         sodipodi:nodetypes="cczcc" />
      <path
         sodipodi:nodetypes="cczcc"
         id="path837"
         d="m 34.545416,41.975505 c 0,0 -1.124863,0.636076 -1.886331,0.905966 -0.544152,0.224821 -0.3555,0.899082 -0.10716,1.141657 0.248341,0.242579 0.86801,0.350442 1.09754,-0.291595 0.208919,-0.641717 0.49864,-1.054925 0.895953,-1.756026 z"
         style="fill:#000000;fill-opacity:1;stroke:#000000;stroke-width:0.293971px;stroke-linecap:butt;stroke-linejoin:miter;stroke-opacity:1" />
      <path
         style="fill:#000000;fill-opacity:1;stroke:#000000;stroke-width:0.293971px;stroke-linecap:butt;stroke-linejoin:miter;stroke-opacity:1"
         d="m 38.218924,42.059694 c 0,0 1.124863,0.636077 1.886331,0.905967 0.544152,0.224821 0.3555,0.899082 0.10716,1.141657 -0.248341,0.242579 -0.86801,0.350442 -1.09754,-0.291595 -0.208919,-0.641717 -0.49864,-1.054925 -0.895953,-1.756026 z"
         id="path839"
         sodipodi:nodetypes="cczcc" />
      <path
         style="fill:#000000;fill-opacity:1;stroke:#000000;stroke-width:0.293971px;stroke-linecap:butt;stroke-linejoin:miter;stroke-opacity:1"
         d="m 33.716344,40.394085 c 0,0 -1.292199,-0.01152 -2.086595,-0.158577 -0.583657,-0.07738 -0.757411,0.600877 -0.66363,0.935124 0.09378,0.334251 0.576497,0.737497 1.096296,0.296237 0.501787,-0.451283 0.959297,-0.664272 1.65393,-1.072787 z"
         id="path841"
         sodipodi:nodetypes="cczcc" />
      <path
         style="fill:#000000;fill-opacity:1;stroke:#000000;stroke-width:0.293971px;stroke-linecap:butt;stroke-linejoin:miter;stroke-opacity:1"
         d="m 39.159548,40.434477 c 0,0 1.292199,-0.01152 2.086595,-0.158577 0.583657,-0.07738 0.757411,0.600877 0.66363,0.935124 -0.09378,0.334251 -0.576497,0.737497 -1.096296,0.296237 -0.501787,-0.451283 -0.959297,-0.664272 -1.65393,-1.072787 z"
         id="path847"
         sodipodi:nodetypes="cczcc" />
      <circle
         style="fill:none;fill-opacity:1;stroke:#000000;stroke-width:0.633905;stroke-linecap:round;stroke-linejoin:round;stroke-opacity:1"
         id="path849"
         cx="36.425102"
         cy="39.923912"
         r="1.905" />
    </g>
    <rect
       ry="0.077957675"
       y="33.6605"
       x="2.0422831"
       height="0.79374999"
       width="68.791664"
       id="rect1"
       style="fill:#000000;fill-opacity:1;stroke:none;stroke-width:2.64583;stroke-linecap:round;stroke-linejoin:round;stroke-dasharray:none" />
    <rect
       style="fill:#000000;fill-opacity:1;stroke:none;stroke-width:2.64583;stroke-linecap:round;stroke-linejoin:round;stroke-dasharray:none"
       id="rect857"
       width="58.208332"
       height="0.79374999"
       x="7.3339491"
       y="35.679737"
       ry="0.077957675" />
  </g>
</svg>
