<?xml version="1.0" encoding="UTF-8" standalone="no"?>
<svg
   xmlns:osb="http://www.openswatchbook.org/uri/2009/osb"
   xmlns:dc="http://purl.org/dc/elements/1.1/"
   xmlns:cc="http://creativecommons.org/ns#"
   xmlns:rdf="http://www.w3.org/1999/02/22-rdf-syntax-ns#"
   xmlns:svg="http://www.w3.org/2000/svg"
   xmlns="http://www.w3.org/2000/svg"
   xmlns:sodipodi="http://sodipodi.sourceforge.net/DTD/sodipodi-0.dtd"
   xmlns:inkscape="http://www.inkscape.org/namespaces/inkscape"
   width="48"
   height="48"
   viewBox="0 0 12.7 12.7"
   version="1.1"
   id="svg8"
   sodipodi:docname="github.svg"
   inkscape:version="1.0 (4035a4fb49, 2020-05-01)">
  <defs
     id="defs2">
    <linearGradient
       osb:paint="solid"
       id="linearGradient838">
      <stop
         id="stop836"
         offset="0"
         style="stop-color:#fafafa;stop-opacity:1;" />
    </linearGradient>
  </defs>
  <sodipodi:namedview
     id="base"
     pagecolor="#ffffff"
     bordercolor="#666666"
     borderopacity="1.0"
     inkscape:pageopacity="0.0"
     inkscape:pageshadow="2"
     inkscape:zoom="30.28774"
     inkscape:cx="13.532455"
     inkscape:cy="38.083176"
     inkscape:document-units="mm"
     inkscape:current-layer="layer1"
     inkscape:document-rotation="0"
     showgrid="false"
     inkscape:window-width="1483"
     inkscape:window-height="1024"
     inkscape:window-x="38"
     inkscape:window-y="46"
     inkscape:window-maximized="0"
     width="64mm"
     units="px"
     inkscape:snap-nodes="true"
     inkscape:snap-smooth-nodes="true"
     inkscape:snap-midpoints="false" />
  <metadata
     id="metadata5">
    <rdf:RDF>
      <cc:Work
         rdf:about="">
        <dc:format>image/svg+xml</dc:format>
        <dc:type
           rdf:resource="http://purl.org/dc/dcmitype/StillImage" />
        <dc:title />
      </cc:Work>
    </rdf:RDF>
  </metadata>
  <g
     inkscape:label="Layer 1"
     inkscape:groupmode="layer"
     id="layer1">
    <path
       style="fill:none;stroke:#fafafa;stroke-width:0.4;stroke-linecap:butt;stroke-linejoin:miter;stroke-opacity:1;stroke-miterlimit:4;stroke-dasharray:none"
       d="M 0.48779423,11.05458 0.45052962,1.6196481 c 0,0 0.0186319,-1.14419663 1.28562848,-1.18171128 1.2669962,-0.037515 9.3906779,-0.037515 9.3906779,-0.037515 0,0 1.117938,-0.0187569 1.117938,0.90035138 0,0.9191089 -0.03726,9.7913218 -0.03726,9.7913218 0,0 0,1.087924 -0.950248,1.125439 -0.950246,0.03752 -9.5956321,0.03752 -9.5956321,0.03752 0,0 -1.17383475,0.150058 -1.17383475,-1.200468 z"
       id="path18" />
    <ellipse
       style="fill:#fafafa;fill-opacity:1;stroke:#fafafa;stroke-width:0.3;stroke-linecap:round;stroke-linejoin:round;stroke-miterlimit:4;stroke-dasharray:none;stroke-opacity:1;paint-order:normal"
       id="path967"
       cx="6.3071451"
       cy="6.626338"
       rx="2.8351312"
       ry="2.1275427" />
    <path
       id="path977-1"
       d="M 7.4320011,4.6370598 C 7.4701461,4.5819628 7.6201968,3.9582233 8.2312943,3.544182 8.5942393,3.2982732 8.8172257,3.366801 8.8172257,3.366801 8.9496353,3.381956 9.1607238,4.1142205 8.8461997,5.5716973 v 0"
       style="fill:none;stroke:#fafafa;stroke-width:0.246;stroke-linecap:butt;stroke-linejoin:round;stroke-miterlimit:4;stroke-dasharray:none;stroke-opacity:1"
       sodipodi:nodetypes="csccc" />
    <path
       sodipodi:nodetypes="csccc"
       style="fill:none;stroke:#fafafa;stroke-width:0.246;stroke-linecap:butt;stroke-linejoin:round;stroke-miterlimit:4;stroke-dasharray:none;stroke-opacity:1"
       d="M 5.2517588,4.6842807 C 5.2136138,4.6291837 5.0635631,4.0054442 4.4524656,3.5914029 4.0895206,3.3454941 3.8665342,3.4140219 3.8665342,3.4140219 3.7341246,3.4291769 3.5230361,4.1614414 3.8375602,5.6189182 v 0"
       id="path977-1-3" />
    <path
       style="fill:#fafafa;fill-opacity:1;stroke:#fafafa;stroke-width:0.264583px;stroke-linecap:butt;stroke-linejoin:miter;stroke-opacity:1"
       d="m 4.4027715,12.264862 c 0,0 0.714939,-0.157454 0.6988526,-0.768738 -0.034943,-1.32782 -0.01747,-1.7646016 -0.01747,-1.7646016 0,0 0.1222991,-0.8393746 0.5940248,-0.9085081 0.4717259,-0.069134 1.5025332,-0.034943 1.5025332,-0.034943 0,0 0.3843689,0.2970127 0.4018401,0.7862093 0.01747,0.4891964 0.034943,2.3760984 0.034943,2.3760984 0,0 0.069885,0.279541 0.6813812,0.279541 0.611496,0 -3.8961033,0.03494 -3.8961033,0.03494 z"
       id="path1059"
       sodipodi:nodetypes="cscscscscc" />
    <path
       sodipodi:nodetypes="scsccccccsssccccssccccccsccccssccccccccccc"
       id="path1129"
       style="fill:#fafafa;fill-opacity:1;stroke:#fafafa;stroke-width:0.117009;stroke-linecap:butt;stroke-linejoin:round;stroke-miterlimit:4;stroke-dasharray:none;stroke-opacity:1;paint-order:markers fill stroke"
       d="m 1.7629027,7.0371857 c -0.2809278,0.00573 -0.4472172,0.2058307 -0.4472172,0.2058307 0,0 -0.2043351,0.3555984 0.2628234,0.3555984 0.4671587,0 0.6266048,0.3804264 0.6266048,0.3804264 0,0 0.567207,1.2298054 0.8769128,1.928561 0.3046218,0.6872908 0.7634398,0.9698878 0.7634398,0.9698878 0,0 0.142678,0.246774 1.1909363,0.244632 v 0 l -0.00193,-1.009386 c 0,0 -0.8448222,0.300363 -1.6111046,-1.3158302 C 2.7966564,7.4750813 2.1240956,7.0298202 1.7629027,7.0371857 Z m 0.3329098,0.2122378 c 0.0025,-4.81e-5 0.005,-4.81e-5 0.0075,0 0.09162,-5.82e-5 0.1659539,0.063046 0.1660421,0.1409581 4.334e-4,0.078223 -0.074051,0.141816 -0.1660378,0.1417588 -0.091987,5.72e-5 -0.1664712,-0.063536 -0.1660378,-0.1417588 -2.6e-6,-0.075482 0.069854,-0.1375963 0.1585286,-0.1409581 z m 0.4793401,0.4869457 c 0.00125,-1.01e-5 0.00251,-1.01e-5 0.00376,0 0.1157767,4.98e-5 0.2095626,0.084338 0.2094191,0.1882111 C 2.7879827,8.0281425 2.6943375,8.1119436 2.5789071,8.1119901 2.4634767,8.1119435 2.3698317,8.0281424 2.3694827,7.9245803 2.3693218,7.8220062 2.4608432,7.7382538 2.5751526,7.7363692 Z m 0.4342847,0.7968932 c 8.333e-4,-4.6e-6 0.00167,-4.6e-6 0.0025,0 0.1227381,-0.00244 0.2239858,0.09224 0.2261117,0.211437 C 3.240259,8.8640242 3.142321,8.9627005 3.0194462,8.964946 2.8967082,8.967386 2.7954606,8.872706 2.7933346,8.7535091 2.7911046,8.6351101 2.8875416,8.5368241 3.0094339,8.5332624 Z m 0.4572295,0.8657704 c 8.333e-4,-4.6e-6 0.00167,-4.6e-6 0.0025,0 0.1227393,-0.00244 0.223989,0.092239 0.2261149,0.211437 0.00222,0.1190148 -0.095221,0.2175602 -0.217768,0.2202469 -0.1230622,0.00289 -0.2248246,-0.091916 -0.226946,-0.211437 -0.00223,-0.118399 0.094207,-0.2166851 0.2160991,-0.2202469 z m 0.805575,0.8389402 c 0.1446801,-0.0027 0.2640081,0.104498 0.2665782,0.239469 0.00256,0.135015 -0.1126743,0.246708 -0.2574002,0.24948 -0.1446806,0.0027 -0.2640087,-0.104499 -0.2665782,-0.23947 -0.00256,-0.135014 0.1126747,-0.246707 0.2574002,-0.249479 z" />
  </g>
</svg>
