<?xml version="1.0" encoding="UTF-8" standalone="no"?>
<svg
   xmlns:dc="http://purl.org/dc/elements/1.1/"
   xmlns:cc="http://creativecommons.org/ns#"
   xmlns:rdf="http://www.w3.org/1999/02/22-rdf-syntax-ns#"
   xmlns:svg="http://www.w3.org/2000/svg"
   xmlns="http://www.w3.org/2000/svg"
   xmlns:sodipodi="http://sodipodi.sourceforge.net/DTD/sodipodi-0.dtd"
   xmlns:inkscape="http://www.inkscape.org/namespaces/inkscape"
   inkscape:version="1.0 (4035a4fb49, 2020-05-01)"
   sodipodi:docname="github.svg"
   id="svg8"
   version="1.1"
   viewBox="0 0 12.7 12.7"
   height="48"
   width="48">
  <defs
     id="defs2" />
  <sodipodi:namedview
     inkscape:snap-midpoints="false"
     inkscape:snap-smooth-nodes="true"
     inkscape:snap-nodes="true"
     units="px"
     width="64mm"
     inkscape:window-maximized="0"
     inkscape:window-y="46"
     inkscape:window-x="38"
     inkscape:window-height="1024"
     inkscape:window-width="1483"
     showgrid="false"
     inkscape:document-rotation="0"
     inkscape:current-layer="layer1"
     inkscape:document-units="mm"
     inkscape:cy="31.972332"
     inkscape:cx="11.450268"
     inkscape:zoom="42.833333"
     inkscape:pageshadow="2"
     inkscape:pageopacity="0.0"
     borderopacity="1.0"
     bordercolor="#666666"
     pagecolor="#ffffff"
     id="base" />
  <metadata
     id="metadata5">
    <rdf:RDF>
      <cc:Work
         rdf:about="">
        <dc:format>image/svg+xml</dc:format>
        <dc:type
           rdf:resource="http://purl.org/dc/dcmitype/StillImage" />
        <dc:title></dc:title>
      </cc:Work>
    </rdf:RDF>
  </metadata>
  <g
     id="layer1"
     inkscape:groupmode="layer"
     inkscape:label="Layer 1">
    <path
       id="path18"
       d="M 0.48779423,11.05458 0.45052962,1.6196481 c 0,0 0.0186319,-1.14419663 1.28562848,-1.18171128 1.2669962,-0.037515 9.3906779,-0.037515 9.3906779,-0.037515 0,0 1.117938,-0.0187569 1.117938,0.90035138 0,0.9191089 -0.03726,9.7913218 -0.03726,9.7913218 0,0 0,1.087924 -0.950248,1.125439 -0.950246,0.03752 -9.5956321,0.03752 -9.5956321,0.03752 0,0 -1.17383475,0.150058 -1.17383475,-1.200468 z"
       style="fill:none;stroke:#fafafa;stroke-width:0.4;stroke-linecap:butt;stroke-linejoin:miter;stroke-opacity:1;stroke-miterlimit:4;stroke-dasharray:none" />
    <ellipse
       ry="2.1275427"
       rx="2.8351312"
       cy="6.626338"
       cx="6.3071451"
       id="path967"
       style="fill:#fafafa;fill-opacity:1;stroke:#fafafa;stroke-width:0.3;stroke-linecap:round;stroke-linejoin:round;stroke-miterlimit:4;stroke-dasharray:none;stroke-opacity:1;paint-order:normal" />
    <path
       sodipodi:nodetypes="csccc"
       style="fill:none;stroke:#fafafa;stroke-width:0.246;stroke-linecap:butt;stroke-linejoin:round;stroke-miterlimit:4;stroke-dasharray:none;stroke-opacity:1"
       d="M 7.4320011,4.6370598 C 7.4701461,4.5819628 7.6201968,3.9582233 8.2312943,3.544182 8.5942393,3.2982732 8.8172257,3.366801 8.8172257,3.366801 8.9496353,3.381956 9.1607238,4.1142205 8.8461997,5.5716973 v 0"
       id="path977-1" />
    <path
       id="path977-1-3"
       d="M 5.2517588,4.6842807 C 5.2136138,4.6291837 5.0635631,4.0054442 4.4524656,3.5914029 4.0895206,3.3454941 3.8665342,3.4140219 3.8665342,3.4140219 3.7341246,3.4291769 3.5230361,4.1614414 3.8375602,5.6189182 v 0"
       style="fill:none;stroke:#fafafa;stroke-width:0.246;stroke-linecap:butt;stroke-linejoin:round;stroke-miterlimit:4;stroke-dasharray:none;stroke-opacity:1"
       sodipodi:nodetypes="csccc" />
    <path
       sodipodi:nodetypes="cscscscscc"
       id="path1059"
       d="m 4.4027715,12.264862 c 0,0 0.714939,-0.157454 0.6988526,-0.768738 -0.034943,-1.32782 -0.01747,-1.7646016 -0.01747,-1.7646016 0,0 0.1222991,-0.8393746 0.5940248,-0.9085081 0.4717259,-0.069134 1.5025332,-0.034943 1.5025332,-0.034943 0,0 0.3843689,0.2970127 0.4018401,0.7862093 0.01747,0.4891964 0.034943,2.3760984 0.034943,2.3760984 0,0 0.069885,0.279541 0.6813812,0.279541 0.611496,0 -3.8961033,0.03494 -3.8961033,0.03494 z"
       style="fill:#fafafa;fill-opacity:1;stroke:#fafafa;stroke-width:0.264583px;stroke-linecap:butt;stroke-linejoin:miter;stroke-opacity:1" />
    <path
       d="m 1.7366958,6.9673005 c -0.2809278,0.00573 -0.4472173,0.2058307 -0.4472173,0.2058307 0,0 -0.2043351,0.3555984 0.2628235,0.3555984 0.4671587,0 0.6266048,0.3804264 0.6266048,0.3804264 0,0 0.567207,1.2298054 0.8769128,1.928561 0.3046218,0.687291 0.7634398,0.969888 0.7634398,0.969888 0,0 0.581248,0.416991 1.6295063,0.318757 0.644229,-0.06036 1.0713188,-0.196219 1.0713188,-0.196219 l -0.09178,-0.9578744 c 0,0 -2.0166873,1.3877234 -3.1447047,-1.2277767 C 2.6490898,7.273273 2.0978887,6.959935 1.7366958,6.9673005 Z m 0.3329098,0.2122378 a 0.16591831,0.14109404 0 0 1 0.0075,0 A 0.16591831,0.14109404 0 0 1 2.2431477,7.3204964 0.16591831,0.14109404 0 0 1 2.0771099,7.4622552 0.16591831,0.14109404 0 0 1 1.9110721,7.3204964 0.16591831,0.14109404 0 0 1 2.0696007,7.1795383 Z M 2.5489457,7.666484 a 0.20951968,0.18797821 0 0 1 0.00376,0 A 0.20951968,0.18797821 0 0 1 2.7621248,7.8546951 0.20951968,0.18797821 0 0 1 2.5527002,8.0421049 0.20951968,0.18797821 0 0 1 2.3432758,7.8546951 0.20951968,0.18797821 0 0 1 2.5489457,7.666484 Z m 0.4342847,0.7968932 a 0.21579584,0.22222533 87.325874 0 1 0.0025,0 0.21579584,0.22222533 87.325874 0 1 0.2261117,0.211437 A 0.21579584,0.22222533 87.325874 0 1 2.9932393,8.8950608 0.21579584,0.22222533 87.325874 0 1 2.7671277,8.6836239 0.21579584,0.22222533 87.325874 0 1 2.983227,8.4633772 Z m 0.4572295,0.8657704 a 0.21579586,0.22222534 87.325828 0 1 0.0025,0 0.21579586,0.22222534 87.325828 0 1 0.2261149,0.211437 0.21579586,0.22222534 87.325828 0 1 -0.217768,0.2202469 0.21579586,0.22222534 87.325828 0 1 -0.226946,-0.211437 0.21579586,0.22222534 87.325828 0 1 0.2160991,-0.2202469 z m 0.805575,0.8389404 a 0.24452291,0.26211142 88.87181 0 1 0.2665782,0.239469 0.24452291,0.26211142 88.87181 0 1 -0.2574002,0.24948 0.24452291,0.26211142 88.87181 0 1 -0.2665782,-0.23947 0.24452291,0.26211142 88.87181 0 1 0.2574002,-0.249479 z"
       style="fill:#fafafa;fill-opacity:1;stroke:#fafafa;stroke-width:0.117009;stroke-linecap:butt;stroke-linejoin:round;stroke-miterlimit:4;stroke-dasharray:none;stroke-opacity:1;paint-order:markers fill stroke"
       id="path1129" />
  </g>
</svg>
