<?xml version="1.0" encoding="UTF-8" standalone="no"?>
<svg
   xmlns:dc="http://purl.org/dc/elements/1.1/"
   xmlns:cc="http://creativecommons.org/ns#"
   xmlns:rdf="http://www.w3.org/1999/02/22-rdf-syntax-ns#"
   xmlns:svg="http://www.w3.org/2000/svg"
   xmlns="http://www.w3.org/2000/svg"
   xmlns:sodipodi="http://sodipodi.sourceforge.net/DTD/sodipodi-0.dtd"
   xmlns:inkscape="http://www.inkscape.org/namespaces/inkscape"
   width="86.436615mm"
   height="7.1750002mm"
   viewBox="0 0 86.436615 7.1750002"
   version="1.1"
   id="svg8"
   inkscape:version="1.0 (4035a4fb49, 2020-05-01)"
   sodipodi:docname="lance.svg">
  <defs
     id="defs2" />
  <sodipodi:namedview
     fit-margin-bottom="2"
     fit-margin-right="2"
     fit-margin-left="2"
     lock-margins="true"
     fit-margin-top="2"
     id="base"
     pagecolor="#ffffff"
     bordercolor="#666666"
     borderopacity="1.0"
     inkscape:pageopacity="0.0"
     inkscape:pageshadow="2"
     inkscape:zoom="1.4142136"
     inkscape:cx="109.53885"
     inkscape:cy="42.151427"
     inkscape:document-units="px"
     inkscape:current-layer="layer1"
     inkscape:document-rotation="0"
     showgrid="false"
     inkscape:window-width="1661"
     inkscape:window-height="1024"
     inkscape:window-x="152"
     inkscape:window-y="0"
     inkscape:window-maximized="0" />
  <metadata
     id="metadata5">
    <rdf:RDF>
      <cc:Work
         rdf:about="">
        <dc:format>image/svg+xml</dc:format>
        <dc:type
           rdf:resource="http://purl.org/dc/dcmitype/StillImage" />
        <dc:title></dc:title>
      </cc:Work>
    </rdf:RDF>
  </metadata>
  <g
     transform="translate(7.2183036,-32.365251)"
     inkscape:label="Layer 1"
     inkscape:groupmode="layer"
     id="layer1">
    <g
       id="g897">
      <rect
         style="fill:#000000;fill-opacity:1;stroke:#ffffff;stroke-width:0.341842;stroke-linecap:round;stroke-linejoin:round"
         id="rect832"
         width="68.697174"
         height="0.66145837"
         x="1.651414"
         y="35.669273"
         ry="0.064964734" />
      <circle
         style="fill:#000000;fill-opacity:1;stroke:none;stroke-width:0.324507;stroke-linecap:round;stroke-linejoin:round"
         id="path834"
         cx="35.905548"
         cy="35.952751"
         r="1.3229167" />
      <g
         id="g867"
         transform="matrix(0.94860465,0,0,0.76802078,2.0625128,8.3657217)">
        <circle
           style="fill:#000000;fill-opacity:1;stroke:none;stroke-width:0.324506;stroke-linecap:round;stroke-linejoin:round"
           id="path834-8"
           cx="29.056921"
           cy="36"
           r="1.3229167" />
        <path
           sodipodi:nodetypes="csc"
           id="path851"
           d="m 30.3685,36.148204 c 0,0 0.100227,-1.436574 -1.369756,-1.536801 -1.469983,-0.100224 -7.316503,1.336349 -16.169806,1.369758"
           style="fill:#000000;fill-opacity:1;stroke:#000000;stroke-width:0.264583px;stroke-linecap:butt;stroke-linejoin:miter;stroke-opacity:1" />
        <path
           style="fill:#000000;fill-opacity:1;stroke:#000000;stroke-width:0.264583px;stroke-linecap:butt;stroke-linejoin:miter;stroke-opacity:1"
           d="m 30.3685,35.814118 c 0,0 0.100227,1.436574 -1.369756,1.536801 -1.469983,0.100224 -7.316503,-1.336349 -16.169806,-1.369758"
           id="path862"
           sodipodi:nodetypes="csc" />
      </g>
      <g
         transform="matrix(-0.94860465,0,0,0.76802078,69.976541,8.3657217)"
         id="g883">
        <circle
           r="1.3229167"
           cy="36"
           cx="29.056921"
           id="circle877"
           style="fill:#000000;fill-opacity:1;stroke:none;stroke-width:0.324506;stroke-linecap:round;stroke-linejoin:round" />
        <path
           style="fill:#000000;fill-opacity:1;stroke:#000000;stroke-width:0.264583px;stroke-linecap:butt;stroke-linejoin:miter;stroke-opacity:1"
           d="m 30.3685,36.148204 c 0,0 0.100227,-1.436574 -1.369756,-1.536801 -1.469983,-0.100224 -7.316503,1.336349 -16.169806,1.369758"
           id="path879"
           sodipodi:nodetypes="csc" />
        <path
           sodipodi:nodetypes="csc"
           id="path881"
           d="m 30.3685,35.814118 c 0,0 0.100227,1.436574 -1.369756,1.536801 -1.469983,0.100224 -7.316503,-1.336349 -16.169806,-1.369758"
           style="fill:#000000;fill-opacity:1;stroke:#000000;stroke-width:0.264583px;stroke-linecap:butt;stroke-linejoin:miter;stroke-opacity:1" />
      </g>
    </g>
    <g
       transform="translate(0,-0.01781848)"
       id="g911">
      <path
         style="fill:#000000;fill-opacity:1;stroke:none;stroke-width:0.264583;stroke-linecap:butt;stroke-linejoin:miter;stroke-miterlimit:4;stroke-dasharray:none;stroke-opacity:1"
         d="m 1.8207737,35.767552 -0.00346,0.500535 c 0,0 3.160581,-0.136586 4.0292071,-0.119883 0.868626,0.01669 -3.8754084,-0.175395 -3.8754084,-0.175395 z"
         id="path903"
         sodipodi:nodetypes="ccccc" />
      <path
         sodipodi:nodetypes="ccccc"
         id="path907"
         d="m 1.8207737,36.268087 -0.00346,-0.500535 c 0,0 3.160581,0.136586 4.0292071,0.119883 0.868626,-0.01669 -3.8754084,0.175395 -3.8754084,0.175395 z"
         style="fill:#000000;fill-opacity:1;stroke:none;stroke-width:0.264583;stroke-linecap:butt;stroke-linejoin:miter;stroke-miterlimit:4;stroke-dasharray:none;stroke-opacity:1" />
    </g>
    <g
       transform="matrix(-1,0,0,1,72.004671,-0.01781848)"
       id="g917">
      <path
         sodipodi:nodetypes="ccccc"
         id="path913"
         d="m 1.8207737,35.767552 -0.00346,0.500535 c 0,0 3.160581,-0.136586 4.0292071,-0.119883 0.868626,0.01669 -3.8754084,-0.175395 -3.8754084,-0.175395 z"
         style="fill:#000000;fill-opacity:1;stroke:none;stroke-width:0.264583;stroke-linecap:butt;stroke-linejoin:miter;stroke-miterlimit:4;stroke-dasharray:none;stroke-opacity:1" />
      <path
         style="fill:#000000;fill-opacity:1;stroke:none;stroke-width:0.264583;stroke-linecap:butt;stroke-linejoin:miter;stroke-miterlimit:4;stroke-dasharray:none;stroke-opacity:1"
         d="m 1.8207737,36.268087 -0.00346,-0.500535 c 0,0 3.160581,0.136586 4.0292071,0.119883 0.868626,-0.01669 -3.8754084,0.175395 -3.8754084,0.175395 z"
         id="path915"
         sodipodi:nodetypes="ccccc" />
    </g>
  </g>
</svg>
