<?xml version="1.0" encoding="UTF-8" standalone="no"?>
<svg
   xmlns:dc="http://purl.org/dc/elements/1.1/"
   xmlns:cc="http://creativecommons.org/ns#"
   xmlns:rdf="http://www.w3.org/1999/02/22-rdf-syntax-ns#"
   xmlns:svg="http://www.w3.org/2000/svg"
   xmlns="http://www.w3.org/2000/svg"
   xmlns:sodipodi="http://sodipodi.sourceforge.net/DTD/sodipodi-0.dtd"
   xmlns:inkscape="http://www.inkscape.org/namespaces/inkscape"
   width="32"
   height="32"
   viewBox="0 0 8.4666659 8.4666659"
   version="1.1"
   id="svg8"
   inkscape:version="1.0 (4035a4fb49, 2020-05-01)"
   sodipodi:docname="search.svg">
  <defs
     id="defs2" />
  <sodipodi:namedview
     id="base"
     pagecolor="#ffffff"
     bordercolor="#666666"
     borderopacity="1.0"
     inkscape:pageopacity="0.0"
     inkscape:pageshadow="2"
     inkscape:zoom="22.627417"
     inkscape:cx="18.265099"
     inkscape:cy="14.043128"
     inkscape:document-units="mm"
     inkscape:current-layer="layer1"
     inkscape:document-rotation="0"
     showgrid="false"
     units="px"
     inkscape:window-width="1920"
     inkscape:window-height="1000"
     inkscape:window-x="-11"
     inkscape:window-y="35"
     inkscape:window-maximized="1" />
  <metadata
     id="metadata5">
    <rdf:RDF>
      <cc:Work
         rdf:about="">
        <dc:format>image/svg+xml</dc:format>
        <dc:type
           rdf:resource="http://purl.org/dc/dcmitype/StillImage" />
        <dc:title />
      </cc:Work>
    </rdf:RDF>
  </metadata>
  <g
     inkscape:label="Layer 1"
     inkscape:groupmode="layer"
     id="layer1">
    <path
       d="M 4.5729324,2.7198694 A 1.8530627,1.8530627 0 0 1 2.7199903,4.5729321 1.8530627,1.8530627 0 0 1 0.86680688,2.7201107 1.8530627,1.8530627 0 0 1 2.7195076,0.86680666 1.8530627,1.8530627 0 0 1 4.5729323,2.7193866"
       sodipodi:arc-type="arc"
       sodipodi:open="true"
       sodipodi:end="6.2829248"
       sodipodi:start="0"
       sodipodi:ry="1.8530627"
       sodipodi:rx="1.8530627"
       sodipodi:cy="2.7198694"
       sodipodi:cx="2.7198696"
       sodipodi:type="arc"
       style="fill:none;stroke:#fafafa;stroke-width:0.294;stroke-miterlimit:4;stroke-dasharray:none;paint-order:markers fill stroke" />
    <path
       sodipodi:nodetypes="cccscscscsc"
       d="m 3.8777994,4.076237 0.611849,0.6201169 -0.1135665,0.1205989 c 0,0 -0.095947,0.066228 -0.013649,0.2571461 0.089808,0.2083402 2.3472346,2.4995989 2.3472346,2.4995989 0,0 0.165838,0.1141997 0.2645834,0.074415 0.094614,-0.038121 0.2356445,-0.1901693 0.2356445,-0.1901693 0,0 0.099219,-0.1157552 -0.033073,-0.2811198 C 7.0445312,7.0114582 4.8500761,4.719396 4.8500761,4.719396 c 0,0 -0.1394643,-0.1688752 -0.3604277,-0.023042 C 4.3509444,4.7878968 3.8777994,4.076237 3.8777994,4.076237 Z"
       style="fill:none;stroke:#fafafa;stroke-width:0.265;stroke-linecap:butt;stroke-linejoin:miter;stroke-miterlimit:4;stroke-dasharray:none;stroke-opacity:1" />
  </g>
</svg>
