<?xml version="1.0" encoding="UTF-8" standalone="no"?>
<svg
   xmlns:dc="http://purl.org/dc/elements/1.1/"
   xmlns:cc="http://creativecommons.org/ns#"
   xmlns:rdf="http://www.w3.org/1999/02/22-rdf-syntax-ns#"
   xmlns:svg="http://www.w3.org/2000/svg"
   xmlns="http://www.w3.org/2000/svg"
   xmlns:sodipodi="http://sodipodi.sourceforge.net/DTD/sodipodi-0.dtd"
   xmlns:inkscape="http://www.inkscape.org/namespaces/inkscape"
   width="134"
   height="133.99998"
   viewBox="0 0 35.453721 35.453716"
   version="1.1"
   id="svg8"
   inkscape:version="1.0 (4035a4fb49, 2020-05-01)"
   sodipodi:docname="small-logo.svg"
   inkscape:export-filename="C:\Projects\Web\ebon\static\Icons\ebin512.png"
   inkscape:export-xdpi="366.80597"
   inkscape:export-ydpi="366.80597">
  <defs
     id="defs2">
    <filter
       inkscape:label="Pixellize"
       inkscape:menu="Pixel Tools"
       inkscape:menu-tooltip="Reduce or remove antialiasing around shapes"
       style="color-interpolation-filters:sRGB"
       id="filter1741">
      <feColorMatrix
         values="1 0 0 0 0 0 1 0 0 0 0 0 1 0 0 0 0 0 600 -500 "
         id="feColorMatrix1739" />
    </filter>
    <filter
       inkscape:label="Pixellize"
       inkscape:menu="Pixel Tools"
       inkscape:menu-tooltip="Reduce or remove antialiasing around shapes"
       style="color-interpolation-filters:sRGB"
       id="filter2812">
      <feColorMatrix
         values="1 0 0 0 0 0 1 0 0 0 0 0 1 0 0 0 0 0 1000 -500 "
         id="feColorMatrix2810" />
    </filter>
    <clipPath
       clipPathUnits="userSpaceOnUse"
       id="clipEmfPath1">
      <path
         d="M 0,0 H 264.09071 V 373.01291 H 0 Z"
         id="path833" />
    </clipPath>
    <pattern
       id="EMFhbasepattern"
       patternUnits="userSpaceOnUse"
       width="6"
       height="6"
       x="0"
       y="0" />
    <pattern
       patternUnits="userSpaceOnUse"
       width="2.8799249"
       height="3.4092648"
       patternTransform="translate(125.71297,87.378184)"
       id="pattern2985">
      <rect
         transform="matrix(1,0,0.17235866,0.98503426,0,0)"
         ry="0.76912493"
         y="0"
         x="-0.12100021"
         height="3.4610622"
         width="2.5253813"
         id="rect2983"
         style="fill:#000000;fill-opacity:1;stroke:none;stroke-width:3.98392;stroke-linecap:round;stroke-linejoin:round;stroke-miterlimit:4;stroke-dasharray:none;stroke-opacity:1;paint-order:stroke fill markers" />
    </pattern>
    <pattern
       patternUnits="userSpaceOnUse"
       width="7.4318356"
       height="7.7583382"
       patternTransform="translate(119.59692,12.112164)"
       id="pattern3019">
      <rect
         y="0"
         x="0"
         height="7.758338"
         width="7.4318357"
         id="rect3003"
         style="fill:#000000;fill-opacity:0.00265252;stroke:none;stroke-width:3.057;stroke-linecap:round;stroke-linejoin:round;stroke-miterlimit:4;stroke-dasharray:none;stroke-opacity:1;paint-order:stroke fill markers" />
      <rect
         ry="1.5169903"
         y="0.74499416"
         x="0.67094457"
         height="6.2499995"
         width="5.8928571"
         id="rect2996"
         style="fill:#000000;fill-opacity:1;stroke:none;stroke-width:2.51349;stroke-linecap:round;stroke-linejoin:round;stroke-miterlimit:4;stroke-dasharray:none;stroke-opacity:1;paint-order:stroke fill markers" />
    </pattern>
    <filter
       inkscape:label="Pixellize"
       inkscape:menu="Pixel Tools"
       inkscape:menu-tooltip="Reduce or remove antialiasing around shapes"
       style="color-interpolation-filters:sRGB"
       id="filter1422">
      <feColorMatrix
         values="1 0 0 0 0 0 1 0 0 0 0 0 1 0 0 0 0 0 1000 -500 "
         id="feColorMatrix1420" />
    </filter>
    <filter
       id="filter1124"
       style="color-interpolation-filters:sRGB"
       inkscape:menu-tooltip="Reduce or remove antialiasing around shapes"
       inkscape:menu="Pixel Tools"
       inkscape:label="Pixellize">
      <feColorMatrix
         id="feColorMatrix1122"
         values="1 0 0 0 0 0 1 0 0 0 0 0 1 0 0 0 0 0 1000 -500 " />
    </filter>
    <filter
       id="filter1128"
       style="color-interpolation-filters:sRGB"
       inkscape:menu-tooltip="Reduce or remove antialiasing around shapes"
       inkscape:menu="Pixel Tools"
       inkscape:label="Pixellize">
      <feColorMatrix
         id="feColorMatrix1126"
         values="1 0 0 0 0 0 1 0 0 0 0 0 1 0 0 0 0 0 1000 -500 " />
    </filter>
  </defs>
  <sodipodi:namedview
     id="base"
     pagecolor="#ffffff"
     bordercolor="#666666"
     borderopacity="1.0"
     inkscape:pageopacity="0.0"
     inkscape:pageshadow="2"
     inkscape:zoom="5.6568546"
     inkscape:cx="60.612873"
     inkscape:cy="69.413294"
     inkscape:document-units="px"
     inkscape:current-layer="text944"
     inkscape:document-rotation="0"
     showgrid="false"
     inkscape:window-width="1920"
     inkscape:window-height="1046"
     inkscape:window-x="-11"
     inkscape:window-y="-11"
     inkscape:window-maximized="1"
     units="px"
     lock-margins="true"
     fit-margin-top="2"
     fit-margin-left="2"
     fit-margin-right="2"
     fit-margin-bottom="2" />
  <metadata
     id="metadata5">
    <rdf:RDF>
      <cc:Work
         rdf:about="">
        <dc:format>image/svg+xml</dc:format>
        <dc:type
           rdf:resource="http://purl.org/dc/dcmitype/StillImage" />
        <dc:title />
      </cc:Work>
    </rdf:RDF>
  </metadata>
  <g
     inkscape:label="Layer 1"
     inkscape:groupmode="layer"
     id="layer1"
     transform="translate(63.90135,11.373693)">
    <g
       id="g1393">
      <g
         style="filter:url(#filter1122)"
         transform="matrix(2,0,0,2,-85.668093,-60.392275)"
         id="g940" />
      <g
         transform="translate(-66.938737,-42.332798)"
         aria-label="Ebin Bellini"
         id="text944"
         style="font-variant:small-caps;font-size:28.2222px;line-height:1.25;font-family:Amerika;-inkscape-font-specification:Amerika;stroke-width:0.529166">
        <ellipse
           ry="16.403957"
           rx="16.403959"
           cy="48.685963"
           cx="20.764246"
           id="path1144"
           style="fill:#ffffff;fill-opacity:1;stroke:#000000;stroke-width:1.32290002;stroke-linecap:round;stroke-linejoin:round;stroke-miterlimit:4;stroke-dasharray:none;stroke-opacity:1;paint-order:markers fill stroke" />
        <ellipse
           style="fill:#ffffff;fill-opacity:1;stroke:#000000;stroke-width:1.3229;stroke-linecap:round;stroke-linejoin:round;stroke-miterlimit:4;stroke-dasharray:none;stroke-opacity:1;paint-order:markers fill stroke"
           id="ellipse865"
           cx="20.764246"
           cy="48.685963"
           rx="14.18182"
           ry="14.181818" />
        <path
           d="m 11.876353,57.225422 q 0,-0.261827 0.192925,-0.427191 0.206705,-0.165365 0.482313,-0.261827 0.289388,-0.110243 0.578775,-0.151585 0.289388,-0.04134 0.482313,-0.04134 h 1.116211 q 0.124023,-0.02756 0.316948,-0.151584 0.192925,-0.124023 0.37207,-0.289388 0.192925,-0.179144 0.330729,-0.38585 0.151584,-0.220486 0.179145,-0.413411 0.04134,-0.289388 0.04134,-0.620117 0,-0.261827 -0.04134,-0.551215 l 0.192925,-0.303168 q -0.192925,-0.702799 -0.261827,-1.405598 -0.0689,-0.702799 -0.0689,-1.378037 0,-0.137803 0.01378,-0.344509 0.02756,-0.206706 0.05512,-0.413411 0.04134,-0.220486 0.08268,-0.413411 0.04134,-0.206706 0.08268,-0.35829 0.01378,-0.04134 0.04134,-0.09646 0.05512,-0.110243 0.05512,-0.137803 0.04134,-0.09646 0.09646,-0.179145 0.02756,-0.0689 0.05512,-0.137804 0.04134,-0.08268 0.04134,-0.124023 0,-0.110243 -0.110243,-0.192925 -0.110243,-0.08268 -0.179144,-0.08268 0.02756,-0.454752 0.04134,-0.909504 0.02756,-0.468533 0.02756,-0.909505 0,-0.468532 -0.02756,-0.909504 -0.01378,-0.454752 -0.04134,-0.923285 -0.0689,-0.192925 -0.08268,-0.275607 -0.01378,-0.09646 -0.01378,-0.248047 l 0.09646,-0.813042 -0.09646,-1.4745 q 0,-0.165364 -0.151584,-0.37207 -0.137804,-0.206705 -0.330729,-0.38585 -0.192925,-0.192925 -0.399631,-0.316949 -0.192925,-0.137803 -0.316948,-0.165364 h -0.992187 l -0.110243,-0.05512 q -0.04134,-0.02756 -0.08268,-0.04134 -0.04134,-0.02756 -0.0689,-0.02756 -0.192917,-0.05513 -0.440963,-0.08269 -0.234267,-0.04134 -0.440972,-0.124023 -0.206706,-0.08268 -0.344509,-0.234266 -0.137804,-0.165365 -0.137804,-0.468533 0,-0.248047 0.0689,-0.37207 0.0689,-0.137804 0.192925,-0.192925 0.137804,-0.0689 0.316949,-0.08268 0.192925,-0.01378 0.427191,-0.01378 0.37207,0 0.716579,0.02756 0.34451,0.02756 0.592556,0.206705 0.0689,-0.01378 0.137804,-0.02756 0.0689,-0.01378 0.124023,-0.01378 h 0.261828 q 0.661457,0 1.364256,0.110243 0.71658,0.09646 1.309136,0.151584 l 0.785481,0.137804 q 0.179145,0 0.358289,-0.05512 0.192926,-0.0689 0.385851,-0.137804 0.206705,-0.08268 0.399631,-0.137804 0.192925,-0.0689 0.38585,-0.0689 0.137804,0 0.234266,0.0689 0.09646,0.0689 0.303168,0.0689 0.0689,0 0.124024,-0.0689 0.0689,-0.0689 0.220486,-0.0689 0.137803,0 0.206705,0.01378 0.08268,0.01378 0.151584,0.124023 h 0.537435 q 0.289388,0 0.606336,-0.09646 0.316949,-0.110242 0.633897,-0.110242 0.192925,0 0.303168,0.02756 0.110243,0.02756 0.316949,0.179145 l 2.480467,0.124023 q 0.179145,0.01378 0.330729,0.04134 0.137803,0.02756 0.289388,0.05512 0.151584,0.01378 0.261827,0.04134 0.0689,0 0.165364,0.01378 0.09646,0.01378 0.179145,0.05512 0.08268,0.04134 0.137804,0.110243 0.0689,0.0689 0.0689,0.179145 0.04134,0.124023 0.08268,0.413411 0.04134,0.275607 0.0689,0.592556 0.04134,0.316948 0.05512,0.592556 0.02756,0.275607 0.02756,0.38585 0.0689,0.468533 0.110243,0.950846 0.04134,0.482313 0.04134,0.950846 h -0.220486 q -0.303168,0 -0.496093,-0.468533 -0.124024,-0.165365 -0.179145,-0.220486 -0.05512,-0.0689 -0.08268,-0.137804 -0.192925,-0.261827 -0.39963,-0.564995 -0.192926,-0.316949 -0.35829,-0.592556 -0.165364,-0.275607 -0.289388,-0.496093 -0.124023,-0.234267 -0.165364,-0.330729 -0.165365,-0.0689 -0.34451,-0.09646 -0.179144,-0.04134 -0.344509,-0.0689 -0.165364,-0.04134 -0.303168,-0.09646 -0.137804,-0.0689 -0.234266,-0.220486 -0.110243,-0.206706 -0.427192,-0.206706 -0.124023,0 -0.137803,0.02756 -0.0689,0.01378 -0.179145,0.02756 -0.09646,0.01378 -0.206706,0.01378 -0.234266,0 -0.468533,-0.01378 -0.234266,-0.02756 -0.38585,-0.02756 -0.09646,0 -0.124023,-0.02756 -0.02756,-0.02756 -0.09646,-0.02756 -0.02756,0 -0.05512,-0.01378 -0.01378,-0.01378 -0.04134,-0.02756 -0.303169,-0.04134 -0.606337,-0.05512 -0.303168,-0.01378 -0.606336,-0.01378 -0.303168,0 -0.592556,0.01378 -0.289388,0.01378 -0.592556,0.05512 -0.09646,0.02756 -0.220486,0.110243 -0.124023,0.08268 -0.248047,0.206706 -0.110243,0.110243 -0.206705,0.234266 -0.09646,0.124024 -0.124024,0.234267 -0.110243,0.468532 -0.137803,1.061088 -0.02756,0.578776 -0.02756,1.198892 v 1.433159 q -0.124023,0.151584 -0.151584,0.316949 -0.02756,0.151584 -0.02756,0.37207 v 0.482313 q 0,0.330728 0.01378,0.647677 0.02756,0.316949 0.110242,0.620117 0.08268,0.303168 0.234267,0.592556 0.165364,0.275607 0.440972,0.537434 l 2.218639,0.08268 q 0.261828,0 0.509874,-0.09646 0.0689,-0.02756 0.165365,-0.04134 0.09646,-0.02756 0.192925,-0.02756 l 0.537434,0.01378 q 0.234267,0 0.427192,-0.137803 0.110243,-0.02756 0.248047,-0.09646 0.151584,-0.08268 0.289387,-0.179145 0.151584,-0.110243 0.275608,-0.206705 0.124023,-0.110243 0.192925,-0.192926 0.08268,-0.165364 0.179145,-0.537434 0.110243,-0.37207 0.234266,-0.74414 0.137804,-0.37207 0.289388,-0.661458 0.165364,-0.289388 0.37207,-0.289388 0.179145,0 0.330729,0.261827 v 1.267794 q 0,0.179145 -0.04134,0.316949 -0.02756,0.137804 -0.124024,0.38585 l -0.165364,0.220486 0.0689,0.454753 q 0,0.05512 0.02756,0.330729 0.02756,0.261827 0.05512,0.620116 0.02756,0.34451 0.05512,0.71658 0.02756,0.358289 0.02756,0.592555 l -0.0689,0.509874 q 0,0.234267 0.08268,0.399631 0.08268,0.165364 0.08268,0.303168 0,0.35829 -0.137804,0.620117 -0.124023,0.261827 -0.482313,0.261827 -0.179145,0 -0.275607,-0.05512 -0.09646,-0.0689 -0.151584,-0.151584 -0.04134,-0.09646 -0.05512,-0.206705 -0.01378,-0.124024 -0.01378,-0.248047 0,-0.09646 0,-0.165364 0,-0.08268 -0.02756,-0.165365 l -0.38585,-0.675238 v -0.427192 q -0.01378,-0.179144 -0.316949,-0.344509 -0.303168,-0.165364 -0.75792,-0.303168 -0.454753,-0.137804 -1.005967,-0.248047 -0.537435,-0.110243 -1.061089,-0.192925 -0.509874,-0.08268 -0.937065,-0.124023 -0.413411,-0.04134 -0.606337,-0.04134 -0.248046,0 -0.440972,0.165364 -0.179144,0.151584 -0.316948,0.385851 -0.124023,0.220486 -0.192925,0.482313 -0.0689,0.248046 -0.09646,0.440971 v 1.08865 l 0.179145,2.122177 v 1.198889 q 0.02756,0.316949 0.248047,0.633897 0.234266,0.316949 0.551214,0.578776 0.316949,0.261827 0.675239,0.427191 0.358289,0.165365 0.647677,0.192926 l 0.978407,0.0689 0.261827,0.09646 h 0.881943 q 0.330729,0 0.606337,0 0.275607,0 0.551215,-0.01378 0.275607,-0.01378 0.564995,-0.02756 0.289388,-0.01378 0.661458,-0.05512 l 1.102429,-0.427191 q 0.220486,-0.151584 0.537435,-0.440972 0.316948,-0.289388 0.620116,-0.606336 0.316949,-0.330729 0.578776,-0.647678 0.261827,-0.316948 0.38585,-0.523654 0.0689,-0.04134 0.137804,-0.206705 0.0689,-0.179145 0.151584,-0.37207 0.09646,-0.206706 0.206706,-0.35829 0.124023,-0.151584 0.289388,-0.151584 0.151584,0 0.220486,0.124023 0.0689,0.124024 0.0689,0.248047 l -0.248046,0.868163 q -0.206706,0.71658 -0.399631,1.46072 -0.192925,0.730359 -0.261827,1.48828 -0.289388,0.440972 -0.73036,0.537434 -0.440972,0.08268 -0.909504,0.08268 -0.151584,0 -0.303168,0 -0.151585,0 -0.275608,0.02756 l -0.289388,0.0689 q -0.137803,0 -0.220486,-0.02756 -0.08268,-0.02756 -0.151584,-0.05512 -0.0689,-0.02756 -0.137803,-0.05512 -0.0689,-0.02756 -0.179145,-0.02756 l -0.881944,0.09646 -0.454752,-0.09646 -2.122177,0.165364 q -1.005968,0 -2.011935,-0.08268 -1.005967,-0.08268 -2.080836,-0.08268 l -1.763887,0.165364 -1.240234,-0.0689 q -0.248046,0 -0.482313,0.05512 -0.234266,0.05512 -0.454752,0.124023 -0.220486,0.0689 -0.427191,0.124023 -0.206706,0.05512 -0.399631,0.05512 -0.234266,0 -0.509874,-0.0689 -0.275604,-0.06892 -0.523651,-0.206727 -0.234266,-0.137803 -0.399631,-0.344509 -0.165364,-0.206705 -0.165364,-0.482313 z"
           style="font-style:normal;font-variant:normal;font-weight:normal;font-stretch:normal;font-size:28.2222px;font-family:'IM FELL English';-inkscape-font-specification:'IM FELL English';stroke-width:0.529166;stroke:none"
           id="path1395" />
      </g>
      <g
         id="g3165"
         transform="matrix(0.4330127,-0.25,0.25,0.4330127,57.70387,-85.430469)" />
      <g
         aria-label="Ebin"
         transform="rotate(-35)"
         id="text1120"
         style="font-size:3.37464px;line-height:1.25;font-family:'IM FELL English';-inkscape-font-specification:'IM FELL English';stroke-width:0.2531" />
    </g>
  </g>
</svg>
