<?xml version="1.0" encoding="UTF-8" standalone="no"?>
<svg
   xmlns:dc="http://purl.org/dc/elements/1.1/"
   xmlns:cc="http://creativecommons.org/ns#"
   xmlns:rdf="http://www.w3.org/1999/02/22-rdf-syntax-ns#"
   xmlns:svg="http://www.w3.org/2000/svg"
   xmlns="http://www.w3.org/2000/svg"
   xmlns:sodipodi="http://sodipodi.sourceforge.net/DTD/sodipodi-0.dtd"
   xmlns:inkscape="http://www.inkscape.org/namespaces/inkscape"
   inkscape:version="1.0 (4035a4fb49, 2020-05-01)"
   sodipodi:docname="email.svg"
   id="svg8"
   version="1.1"
   viewBox="0 0 12.7 12.7"
   height="48"
   width="48">
  <defs
     id="defs2" />
  <sodipodi:namedview
     inkscape:snap-midpoints="false"
     inkscape:snap-smooth-nodes="true"
     inkscape:snap-nodes="true"
     units="px"
     width="64mm"
     inkscape:window-maximized="1"
     inkscape:window-y="46"
     inkscape:window-x="38"
     inkscape:window-height="1024"
     inkscape:window-width="1483"
     showgrid="false"
     inkscape:document-rotation="0"
     inkscape:current-layer="layer1"
     inkscape:document-units="mm"
     inkscape:cy="22.484681"
     inkscape:cx="19.206108"
     inkscape:zoom="10.708333"
     inkscape:pageshadow="2"
     inkscape:pageopacity="0.0"
     borderopacity="1.0"
     bordercolor="#666666"
     pagecolor="#ffffff"
     id="base" />
  <metadata
     id="metadata5">
    <rdf:RDF>
      <cc:Work
         rdf:about="">
        <dc:format>image/svg+xml</dc:format>
        <dc:type
           rdf:resource="http://purl.org/dc/dcmitype/StillImage" />
        <dc:title />
      </cc:Work>
    </rdf:RDF>
  </metadata>
  <g
     id="layer1"
     inkscape:groupmode="layer"
     inkscape:label="Layer 1">
    <path
       id="path18"
       d="M 0.48779423,11.05458 0.45052962,1.6196481 c 0,0 0.0186319,-1.14419663 1.28562848,-1.18171128 1.2669962,-0.037515 9.3906779,-0.037515 9.3906779,-0.037515 0,0 1.117938,-0.0187569 1.117938,0.90035138 0,0.9191089 -0.03726,9.7913218 -0.03726,9.7913218 0,0 0,1.087924 -0.950248,1.125439 -0.950246,0.03752 -9.5956321,0.03752 -9.5956321,0.03752 0,0 -1.17383475,0.150058 -1.17383475,-1.200468 z"
       style="fill:none;stroke:#fafafa;stroke-width:0.4;stroke-linecap:butt;stroke-linejoin:miter;stroke-opacity:1;stroke-miterlimit:4;stroke-dasharray:none" />
    <path
       transform="matrix(-0.86891611,0,0,0.76807494,1.105625,1.4166041)"
       d="M -8.8142675,9.1955073 C -10.772161,8.0527331 -11.33122,5.4454472 -10.192951,3.5276388 c 1.2796534,-2.1560219 4.1652665,-2.76723045 6.2821614,-1.493653 2.3542377,1.4163688 3.01762633,4.5805502 1.6086221,6.8964553 -1.1366179,1.8681979 -3.3700507,2.8385039 -5.5151566,2.4747179"
       sodipodi:t0="0.70128953"
       sodipodi:argument="-17.966785"
       sodipodi:radius="5.5580077"
       sodipodi:revolution="3.1442883"
       sodipodi:expansion="1"
       sodipodi:cy="5.9793777"
       sodipodi:cx="-6.6121907"
       id="path851"
       style="fill:none;fill-rule:evenodd;stroke:#fafafa;stroke-width:0.423333;stroke-miterlimit:4;stroke-dasharray:none"
       sodipodi:type="spiral" />
    <path
       sodipodi:nodetypes="cscscsccc"
       id="path853"
       d="m 8.8441849,8.4425398 c 0,0 -0.7113401,0.1397534 -0.6707695,-0.7185514 C 8.2991783,5.0633716 7.9162779,4.5534498 7.9162779,4.5534498 c 0,0 -0.1636771,-0.5277369 -1.4537011,-0.6319024 -1.4540358,-0.117409 -2.2996272,1.7243117 -2.2996272,1.7243117 0,0 -0.4915235,1.2723079 0.5968498,2.5780974 C 5.8481726,9.5297459 7.6036132,7.4036527 7.6036132,7.4036527 L 8.1478,6.8512032 7.9020395,7.1357984"
       style="fill:none;stroke:#fafafa;stroke-width:0.345838;stroke-linecap:butt;stroke-linejoin:miter;stroke-miterlimit:4;stroke-dasharray:none;stroke-opacity:1" />
  </g>
</svg>
