<?xml version="1.0" encoding="UTF-8" standalone="no"?>
<svg
   xmlns:dc="http://purl.org/dc/elements/1.1/"
   xmlns:cc="http://creativecommons.org/ns#"
   xmlns:rdf="http://www.w3.org/1999/02/22-rdf-syntax-ns#"
   xmlns:svg="http://www.w3.org/2000/svg"
   xmlns="http://www.w3.org/2000/svg"
   xmlns:sodipodi="http://sodipodi.sourceforge.net/DTD/sodipodi-0.dtd"
   xmlns:inkscape="http://www.inkscape.org/namespaces/inkscape"
   sodipodi:docname="projects.svg"
   inkscape:version="1.0 (4035a4fb49, 2020-05-01)"
   id="svg8"
   version="1.1"
   viewBox="0 0 19.050001 19.050001"
   height="72"
   width="72">
  <defs
     id="defs2" />
  <sodipodi:namedview
     inkscape:window-maximized="0"
     inkscape:window-y="46"
     inkscape:window-x="152"
     inkscape:window-height="1034"
     inkscape:window-width="1661"
     showgrid="false"
     inkscape:document-rotation="0"
     inkscape:current-layer="layer1"
     inkscape:document-units="px"
     inkscape:cy="24.428944"
     inkscape:cx="19.914666"
     inkscape:zoom="15.839192"
     inkscape:pageshadow="2"
     inkscape:pageopacity="0.0"
     borderopacity="1.0"
     bordercolor="#666666"
     pagecolor="#ffffff"
     id="base"
     units="px" />
  <metadata
     id="metadata5">
    <rdf:RDF>
      <cc:Work
         rdf:about="">
        <dc:format>image/svg+xml</dc:format>
        <dc:type
           rdf:resource="http://purl.org/dc/dcmitype/StillImage" />
        <dc:title />
      </cc:Work>
    </rdf:RDF>
  </metadata>
  <g
     id="layer1"
     inkscape:groupmode="layer"
     inkscape:label="Layer 1">
    <rect
       style="fill:#212121;stroke:#212121;stroke-width:0.101166;stroke-linecap:round;stroke-linejoin:round;paint-order:markers fill stroke"
       id="rect830"
       width="5.291667"
       height="0.5291667"
       x="6.8791671"
       y="14.181902"
       ry="0.26458335" />
    <rect
       ry="0.26458335"
       y="15.240235"
       x="6.8791671"
       height="0.5291667"
       width="5.291667"
       id="rect836"
       style="fill:#212121;stroke:#212121;stroke-width:0.101166;stroke-linecap:round;stroke-linejoin:round;paint-order:markers fill stroke" />
    <rect
       style="fill:#212121;stroke:#212121;stroke-width:0.101166;stroke-linecap:round;stroke-linejoin:round;paint-order:markers fill stroke"
       id="rect838"
       width="5.291667"
       height="0.5291667"
       x="6.8791671"
       y="16.298569"
       ry="0.26458335" />
    <rect
       ry="0.26458335"
       y="17.356903"
       x="7.5406256"
       height="0.5291667"
       width="3.9687502"
       id="rect840"
       style="fill:#212121;stroke:#212121;stroke-width:0.0876123;stroke-linecap:round;stroke-linejoin:round;paint-order:markers fill stroke" />
    <circle
       style="fill:#e5d363;fill-opacity:1;stroke:none;stroke-width:0.560281;stroke-linecap:round;stroke-linejoin:round;paint-order:markers fill stroke"
       id="path842"
       cx="9.5250006"
       cy="6.8791671"
       r="5.291667" />
    <path
       style="fill:#e5d363;fill-opacity:1;stroke:none;stroke-width:0.274035px;stroke-linecap:butt;stroke-linejoin:miter;stroke-opacity:1"
       d="m 5.3119822,9.8060391 c 0.7319943,1.0949049 1.5550989,1.8314419 2.0379303,3.9063869 l 4.3765385,0.03584 c -0.04335,-1.674903 1.211796,-2.65361 2.071339,-3.7988721 z"
       id="path844"
       sodipodi:nodetypes="ccccc" />
    <path
       style="fill:none;stroke:#303030;stroke-width:0.264583px;stroke-linecap:butt;stroke-linejoin:miter;stroke-opacity:1"
       d="M 8.2682297,13.715338 C 8.2763221,13.395031 9.0712481,11.440549 8.6225825,10.402141 8.1735146,9.3628017 8.4099707,9.717059 7.7957595,8.9138596 7.181548,8.1106599 6.703137,8.9891304 6.7090778,9.2445888 6.7149836,9.4985414 6.8508188,9.8824236 7.4414067,9.717059 8.0319946,9.5516944 9.5202759,8.7957419 9.5202759,8.7957419 c 0,0 1.3680581,-0.5720647 0.8268231,-1.2756697 -0.7087054,-0.9213169 -1.2756699,0.1181176 -1.2756699,0.1181176 0,0 -0.6023995,0.8976936 0.6142114,1.4882813"
       id="path848"
       sodipodi:nodetypes="csssscscc" />
    <path
       id="path850"
       d="m 10.828428,13.72715 c 0.0076,-0.204991 -0.684121,-1.993025 -0.507906,-3.171456 0.167441,-1.1197552 0.105481,-1.2081253 0.944941,-1.7717637 0.826824,-0.5551528 0.927222,0.3366344 0.921317,0.6023996 -0.0057,0.2554647 -0.188989,0.5433408 -0.779576,0.3779762 C 10.303405,9.3639744 10.264711,9.3553563 9.6029582,9.0880829"
       style="fill:none;stroke:#303030;stroke-width:0.264583px;stroke-linecap:butt;stroke-linejoin:miter;stroke-opacity:1"
       sodipodi:nodetypes="cssscc" />
    <path
       sodipodi:nodetypes="cscssccc"
       id="path838"
       d="m 7.3499125,13.712426 c 0,0 -0.1211173,-1.333705 -1.3259166,-2.91648 C 4.8191968,9.2131703 4.4411905,9.0649139 4.1813618,7.2524185 3.7959747,4.0238577 6.3783487,2.4804689 7.4177831,2.0552457 8.4572179,1.6300224 11.506633,1.3108672 13.323662,3.260045 14.622954,4.6538322 15.637359,8.1146726 13.79779,9.9493939 11.510507,12.51092 11.726451,13.748266 11.726451,13.748266 Z"
       style="fill:none;stroke:#303030;stroke-width:0.264583px;stroke-linecap:butt;stroke-linejoin:miter;stroke-opacity:1" />
  </g>
</svg>
